<?xml version="1.0" encoding="iso-8859-1"?>
<!-- Generator: Adobe Illustrator 18.0.0, SVG Export Plug-In . SVG Version: 6.00 Build 0)  -->
<!DOCTYPE svg PUBLIC "-//W3C//DTD SVG 1.1//EN" "http://www.w3.org/Graphics/SVG/1.1/DTD/svg11.dtd">
<svg version="1.1" id="Capa_1" xmlns="http://www.w3.org/2000/svg" xmlns:xlink="http://www.w3.org/1999/xlink" x="0px" y="0px"
	 viewBox="0 0 410 410" style="enable-background:new 0 0 410 410;" xml:space="preserve">
<g>
	<path d="M215.351,182.107c-1.176-0.355-2.544-0.541-4.035-0.541c-5.23,0-11.958,2.271-17.126,7.419
		c-3.882,3.866-7.822,10.333-6.419,20.097c10.163-1.878,26.186-7.088,31.391-14.553c1.492-2.141,1.931-4.212,1.424-6.714
		C219.974,184.815,218.314,183.001,215.351,182.107z"/>
	<path d="M205,0C91.963,0,0,91.962,0,205s91.963,205,205,205s205-91.962,205-205S318.037,0,205,0z M370.49,148.083
		c-7.474-4.622-15.942-8.926-25.376-12.853c-10.352-4.309-21.622-8.082-33.61-11.294c-7.193-30.423-18.365-56.887-32.428-77.46
		C321.703,66.475,354.998,103.165,370.49,148.083z M39.51,261.917c7.474,4.623,15.942,8.927,25.376,12.854
		c10.352,4.309,21.622,8.082,33.61,11.294c7.193,30.422,18.365,56.886,32.428,77.459C88.298,343.525,55.002,306.836,39.51,261.917z
		 M98.495,123.936c-11.987,3.212-23.257,6.985-33.609,11.294c-9.434,3.927-17.902,8.23-25.376,12.853
		c15.492-44.918,48.788-81.608,91.414-101.607C116.861,67.049,105.689,93.513,98.495,123.936z M262.864,332.333
		C246.827,362.626,225.737,380,205,380s-41.827-17.374-57.864-47.667c-6.235-11.778-11.489-24.955-15.693-39.169
		c23.136,3.883,48,5.921,73.558,5.921s50.422-2.038,73.558-5.921C274.353,307.378,269.1,320.554,262.864,332.333z M223.616,226.213
		c16.503-3.562,32.981-15.843,29.73-39.634c-1.835-13.442-8.479-24.204-18.715-30.306c-11.568-6.898-26.525-7.467-42.115-1.601
		c-15.813,5.948-27.524,17.362-32.984,32.138c-5.703,15.442-3.925,32.875,5.004,49.088c5.708,10.362,17.279,18.497,30.952,21.763
		c12.291,2.935,32.506,3.517,59.004-10.375c3.826-2.003,8.549-0.531,10.557,3.294c2.005,3.825,0.53,8.551-3.295,10.555
		C241.567,271.721,224.2,275,210.441,275c-7.227,0-13.454-0.903-18.582-2.127c-18.155-4.335-33.106-15.063-41.02-29.429
		c-11.149-20.249-13.271-42.286-5.975-62.05c7.053-19.099,22.021-33.787,42.146-41.357c20.134-7.574,39.892-6.58,55.632,2.806
		c14.404,8.587,23.707,23.37,26.202,41.623c4.393,32.198-17.893,51.846-41.929,57.034c-21.561,4.655-46.705-1.782-53.048-23.085
		c-4.564-15.321-1.177-30.086,9.288-40.51c9.921-9.878,25.02-14.302,36.721-10.767c8.439,2.553,14.285,8.954,16.033,17.566
		c1.355,6.668-0.008,13.167-3.936,18.792c-7.985,11.431-25.205,17.18-35.597,19.715
		C203.527,227.488,214.198,228.248,223.616,226.213z M205,110.915c-25.558,0-50.422,2.038-73.558,5.921
		c4.204-14.214,9.458-27.39,15.693-39.168C163.173,47.374,184.263,30,205,30s41.827,17.374,57.864,47.668
		c6.235,11.778,11.489,24.955,15.693,39.168C255.422,112.953,230.558,110.915,205,110.915z M279.076,363.524
		c14.063-20.573,25.234-47.037,32.428-77.459c11.988-3.212,23.258-6.985,33.61-11.294c9.434-3.927,17.902-8.23,25.376-12.854
		C354.998,306.836,321.702,343.525,279.076,363.524z"/>
</g>
<g>
</g>
<g>
</g>
<g>
</g>
<g>
</g>
<g>
</g>
<g>
</g>
<g>
</g>
<g>
</g>
<g>
</g>
<g>
</g>
<g>
</g>
<g>
</g>
<g>
</g>
<g>
</g>
<g>
</g>
</svg>
